<svg xmlns="http://www.w3.org/2000/svg" xml:space="preserve" id="Ebene_1" x="0" y="0" style="enable-background:new 0 0 256 256" version="1.1" viewBox="0 0 256 256"><style>.st2{fill:#fff}.st3{fill:none;stroke:#fff;stroke-width:3;stroke-linecap:round;stroke-linejoin:round;stroke-miterlimit:10}</style><path d="M0 0h256v256H0z" style="fill:#66c"/><g style="opacity:.2"><path d="M84.2 87.1h21.2l22.6 72.1h-18.1l-3.5-13H83l-3.6 13h-18l22.8-72.1zm3.3 45.6H102l-7.2-27.6-7.3 27.6zM153 102.8c5.8 0 10 1.9 12.8 5v-4h18v50.6c0 18.1-10.7 25.9-25.7 25.9-10.7 0-17-2.7-20.5-4.5l3.9-14.4c3.2 1.7 8.6 4.6 14.5 4.6 5.4 0 9.7-1.9 9.7-9v-5.5c-3.1 2.9-7.5 4.7-12.8 4.7-12.6 0-21-10.1-21-26.5.1-16.8 8.4-26.9 21.1-26.9zm6 37.6c2.8 0 5.2-1.6 6.8-3v-15.7c-1.5-1.4-3.8-3.1-6.8-3.1-5.6 0-8.8 4.1-8.8 10.9 0 6.6 3.3 10.9 8.8 10.9z" class="st2"/></g><path d="M58.7 195.8h138.7v8.8H58.7zM58.7 60.8h104.9v8.8H58.7z" class="st2"/><path id="Pfad_364_20_" d="M199.9 56.8c2.2.6 4.1 2.1 5.1 4.1 2.3 4.2.8 9.4-3.3 11.7-4.2 2.3-9.4.8-11.7-3.3-2.3-4.2-.8-9.4 3.3-11.7 2.1-1.1 4.4-1.4 6.6-.8zm8.5 23 6 2.6c.6.3 1.1.1 1.5-.6l5-8.4c.3-.5.2-1.2-.3-1.5l-5.1-4.1c.2-1.6.3-3.2.1-4.8l5.2-3.9c.5-.3.6-1 .3-1.5l-4.8-8.6c-.3-.5-.9-.7-1.5-.5l-6.1 2.3c-1.3-1-2.6-1.8-4.1-2.4l-.8-6.5c0-.6-.5-1.1-1.1-1.1l-9.8-.2c-.8 0-1.2.3-1.3 1l-1 6.5c-.7.3-1.5.7-2.2 1.1-.7.4-1.4.8-2 1.3l-6-2.6c-.6-.3-1.1-.1-1.5.6l-5 8.4c-.3.5-.2 1.2.3 1.5l5 4.1c-.2 1.6-.3 3.2-.1 4.8l-5.2 3.9c-.5.3-.6 1-.3 1.5l4.8 8.6c.3.5.9.7 1.5.5l6.1-2.3c1.3 1 2.6 1.8 4.1 2.4l.8 6.5c0 .6.5 1.1 1.1 1.1l9.8.2c.8 0 1.2-.3 1.3-1l1-6.4c.7-.3 1.5-.7 2.2-1.1.8-.4 1.6-1 2.1-1.4z" class="st2"/><path d="M84.2 87.1h21.2l22.6 72.1h-18.1l-3.5-13H83l-3.6 13h-18l22.8-72.1zm3.3 45.6H102l-7.2-27.6-7.3 27.6zM153 102.8c5.8 0 10 1.9 12.8 5v-4h18v50.6c0 18.1-10.7 25.9-25.7 25.9-10.7 0-17-2.7-20.5-4.5l3.9-14.4c3.2 1.7 8.6 4.6 14.5 4.6 5.4 0 9.7-1.9 9.7-9v-5.5c-3.1 2.9-7.5 4.7-12.8 4.7-12.6 0-21-10.1-21-26.5.1-16.8 8.4-26.9 21.1-26.9zm6 37.6c2.8 0 5.2-1.6 6.8-3v-15.7c-1.5-1.4-3.8-3.1-6.8-3.1-5.6 0-8.8 4.1-8.8 10.9 0 6.6 3.3 10.9 8.8 10.9z" class="st3"/></svg>
